<?xml version="1.0" standalone="no"?>
<!DOCTYPE svg PUBLIC "-//W3C//DTD SVG 20010904//EN"
 "http://www.w3.org/TR/2001/REC-SVG-20010904/DTD/svg10.dtd">
<svg version="1.0" xmlns="http://www.w3.org/2000/svg"
 width="4500.000000pt" height="1226.000000pt" viewBox="0 0 4500.000000 1226.000000"
 preserveAspectRatio="xMidYMid meet">

<g transform="translate(0.000000,1226.000000) scale(0.100000,-0.100000)"
fill="#000000" stroke="none">
<path d="M9425 10023 c-536 -35 -1112 -204 -1598 -469 -1309 -714 -2107 -2137
-2027 -3613 17 -314 58 -575 135 -856 59 -215 106 -289 224 -347 39 -19 62
-23 146 -23 84 0 107 4 146 23 75 37 125 87 161 159 50 102 50 164 0 338 -221
774 -152 1583 198 2300 245 502 626 940 1090 1254 518 350 1083 532 1705 548
326 9 571 -17 873 -92 555 -138 1083 -434 1470 -827 l73 -74 -693 -655 c-380
-360 -716 -676 -746 -703 l-53 -49 -612 610 c-689 687 -641 648 -797 648 -143
0 -114 23 -825 -656 -346 -331 -744 -710 -882 -841 -226 -214 -256 -247 -285
-306 -30 -60 -33 -75 -33 -152 1 -74 5 -95 29 -145 35 -71 88 -125 158 -162
48 -25 63 -28 153 -28 167 0 107 -49 1020 829 127 122 328 315 447 430 l218
208 602 -605 c487 -489 613 -609 653 -628 41 -19 67 -24 145 -24 153 0 149 -3
570 396 200 189 660 625 1024 969 537 508 667 635 691 680 28 51 30 63 30 155
0 89 -3 106 -27 155 -63 127 -424 508 -658 696 -621 497 -1352 788 -2145 854
-110 9 -461 11 -580 3z"/>
<path d="M15610 8929 c-341 -39 -581 -142 -770 -328 -231 -229 -327 -538 -275
-881 50 -333 211 -550 557 -749 135 -78 245 -123 573 -234 378 -129 465 -162
588 -223 244 -121 357 -268 357 -463 -1 -299 -193 -473 -575 -520 -299 -37
-566 19 -810 169 -99 60 -171 118 -292 231 -70 66 -125 109 -168 130 -60 29
-70 31 -144 27 -87 -5 -140 -29 -198 -90 -73 -77 -103 -205 -70 -302 64 -187
351 -445 657 -590 265 -125 509 -176 840 -176 439 0 776 89 1017 269 254 190
384 448 400 796 11 250 -45 481 -162 660 -58 91 -207 232 -330 314 -186 125
-315 180 -820 351 -281 96 -362 127 -486 191 -126 65 -208 139 -251 227 -30
61 -33 74 -33 162 0 86 3 102 31 161 56 117 176 214 314 252 198 55 458 48
672 -19 169 -53 296 -127 483 -284 78 -66 151 -94 228 -87 108 10 196 70 249
170 18 34 23 59 23 127 0 118 -29 174 -149 296 -223 225 -565 371 -968 414
-113 12 -380 11 -488 -1z"/>
<path d="M29033 8841 c-89 -30 -150 -89 -195 -187 l-23 -49 0 -1675 0 -1675
28 -56 c36 -74 108 -140 180 -168 57 -21 67 -21 735 -21 703 0 797 5 953 45
413 107 676 363 775 752 32 127 48 294 40 431 -22 399 -174 641 -504 803 l-93
46 58 35 c112 69 223 206 284 348 104 245 98 591 -16 836 -148 321 -425 494
-870 544 -51 5 -354 10 -695 10 -554 -1 -609 -2 -657 -19z m1275 -581 c233
-38 357 -179 378 -428 17 -201 -65 -395 -199 -472 -29 -17 -83 -40 -122 -53
-68 -21 -83 -22 -480 -22 l-410 0 -3 493 -2 492 387 0 c216 0 416 -5 451 -10z
m167 -1554 c87 -26 172 -74 227 -129 52 -52 108 -158 129 -247 19 -76 16 -269
-4 -353 -44 -179 -160 -299 -342 -353 -53 -15 -118 -18 -537 -21 l-478 -4 0
566 0 566 473 -4 c413 -3 480 -6 532 -21z"/>
<path d="M27402 8364 c-61 -22 -145 -103 -173 -166 -23 -51 -24 -64 -27 -320
l-3 -268 -69 0 c-97 0 -158 -16 -211 -55 -65 -47 -99 -118 -99 -206 0 -79 17
-125 68 -181 56 -62 99 -78 215 -78 l97 0 0 -680 c0 -416 4 -718 11 -776 44
-401 350 -663 779 -667 120 -2 153 9 220 70 59 52 80 102 80 188 0 87 -21 135
-82 191 -51 47 -84 60 -184 73 -39 5 -84 16 -100 24 -39 20 -90 75 -103 110
-8 19 -11 265 -11 748 l0 719 160 0 c173 0 200 6 258 55 112 94 123 268 24
377 -65 72 -96 82 -279 86 l-161 4 -4 272 c-3 260 -4 273 -27 318 -28 58 -91
122 -145 150 -54 28 -174 34 -234 12z"/>
<path d="M12893 7719 c-67 -26 -141 -93 -178 -161 -25 -45 -30 -67 -33 -143
-3 -84 -1 -97 36 -200 290 -804 245 -1688 -123 -2462 -371 -779 -1055 -1386
-1875 -1665 -626 -212 -1313 -223 -1949 -31 -407 123 -781 323 -1121 601 -118
97 -383 359 -378 374 2 6 285 272 628 593 l625 582 643 -636 c373 -368 663
-647 689 -663 96 -56 239 -56 336 0 26 15 389 351 809 747 419 396 765 722
770 723 4 2 8 -37 8 -87 0 -101 14 -148 58 -195 98 -104 277 -80 345 47 22 41
22 47 25 500 2 293 -1 471 -8 496 -16 62 -51 104 -109 134 l-55 27 -456 0
-456 0 -55 -27 c-146 -74 -157 -272 -21 -367 38 -27 54 -31 133 -36 l90 -5
-587 -555 c-323 -305 -602 -568 -620 -583 l-34 -29 -645 639 c-733 726 -698
697 -852 697 -146 0 -99 38 -1114 -908 -856 -799 -900 -841 -931 -904 -29 -59
-33 -76 -33 -152 0 -107 20 -154 130 -299 359 -472 818 -853 1360 -1127 451
-227 944 -364 1460 -405 203 -16 593 -6 791 20 651 87 1242 321 1774 701 175
126 317 247 481 410 224 223 392 434 555 694 608 970 756 2167 403 3271 -80
251 -139 337 -265 384 -72 28 -180 27 -251 0z"/>
<path d="M19009 7680 c-221 -20 -410 -109 -552 -259 l-65 -70 -7 42 c-11 65
-49 130 -105 180 -151 136 -385 87 -477 -101 l-28 -57 0 -1116 0 -1115 30 -59
c53 -104 153 -161 280 -160 121 1 227 64 276 162 l24 48 6 765 c6 836 4 811
66 934 31 60 111 147 167 180 108 63 312 92 464 66 183 -31 313 -149 363 -331
9 -32 14 -260 18 -829 7 -880 1 -817 82 -905 56 -61 124 -88 224 -89 66 0 90
4 135 25 67 32 125 88 154 149 21 44 21 57 26 820 5 758 6 776 27 837 53 157
159 258 323 307 75 23 257 32 347 17 187 -32 315 -153 364 -346 9 -37 14 -250
18 -830 l6 -780 31 -55 c113 -199 423 -194 542 8 l27 47 3 820 c2 540 -1 848
-8 902 -42 326 -200 570 -445 689 -171 83 -406 121 -640 104 -274 -20 -460
-104 -640 -286 l-72 -74 -45 58 c-83 105 -223 201 -356 245 -146 48 -387 72
-563 57z"/>
<path d="M23220 7680 c-262 -21 -480 -96 -661 -230 -82 -62 -160 -144 -188
-199 -67 -131 -12 -290 125 -357 48 -23 63 -26 127 -22 78 5 112 19 216 88 84
56 232 126 311 147 49 14 101 18 215 17 137 0 157 -3 229 -27 92 -32 148 -69
204 -132 52 -59 72 -118 79 -227 l6 -88 -404 0 c-222 0 -442 -5 -489 -10 -325
-37 -585 -201 -706 -445 -66 -132 -88 -249 -81 -430 6 -165 23 -236 82 -360
116 -241 342 -403 635 -456 109 -20 354 -17 460 5 111 23 212 59 279 99 57 34
163 131 198 181 l21 30 11 -54 c29 -134 131 -227 267 -245 99 -13 222 42 280
126 55 79 53 51 54 921 0 514 -4 835 -11 885 -13 98 -66 255 -110 328 -131
218 -367 368 -671 429 -68 14 -328 38 -368 34 -8 0 -58 -4 -110 -8z m658
-1646 c3 -110 -17 -217 -55 -292 -58 -114 -213 -227 -368 -267 -77 -19 -269
-20 -352 0 -194 46 -288 156 -287 335 0 130 60 223 175 274 86 39 141 44 529
42 l355 -1 3 -91z"/>
<path d="M35625 7683 c-323 -20 -587 -136 -736 -323 -166 -207 -181 -576 -33
-820 66 -111 236 -246 417 -330 45 -21 145 -57 222 -80 232 -70 471 -160 536
-201 177 -115 165 -317 -24 -387 -81 -31 -206 -46 -326 -39 -185 10 -345 64
-501 170 -165 112 -186 121 -265 121 -81 0 -132 -22 -191 -81 -76 -76 -100
-198 -57 -293 26 -58 110 -149 187 -204 327 -232 726 -318 1146 -249 332 54
584 217 695 448 61 127 70 174 70 355 -1 143 -3 161 -29 235 -72 208 -207 342
-467 464 -110 51 -211 87 -479 171 -310 98 -420 177 -420 304 0 87 42 146 135
187 69 31 260 39 367 15 98 -22 209 -72 310 -138 137 -91 164 -102 243 -102
82 0 129 20 186 81 60 63 74 98 74 188 0 97 -19 137 -96 211 -133 124 -339
222 -564 268 -74 15 -300 38 -335 34 -8 -1 -37 -3 -65 -5z"/>
<path d="M38005 7679 c-345 -29 -631 -191 -743 -419 -58 -118 -76 -213 -69
-370 8 -201 64 -339 187 -460 144 -143 276 -210 650 -333 320 -106 417 -147
480 -203 103 -93 108 -223 11 -306 -101 -86 -366 -113 -591 -58 -101 24 -280
110 -365 175 -93 71 -139 90 -215 89 -78 -1 -123 -19 -180 -71 -91 -81 -116
-207 -63 -313 86 -172 418 -371 727 -434 139 -29 309 -39 455 -27 409 33 708
197 841 461 86 170 100 428 34 612 -100 278 -309 421 -864 593 -318 98 -437
163 -481 260 -24 51 -23 99 0 151 41 89 147 134 320 134 178 0 322 -48 497
-166 91 -61 167 -94 217 -94 56 0 131 28 174 65 62 53 93 123 93 209 -1 120
-51 196 -196 292 -244 162 -585 241 -919 213z"/>
<path d="M26134 7665 c-180 -39 -359 -155 -445 -287 l-37 -58 -7 52 c-25 200
-222 326 -409 262 -64 -22 -147 -100 -177 -166 l-24 -53 0 -1110 0 -1110 24
-52 c27 -62 94 -126 159 -156 65 -29 179 -29 243 0 66 30 124 86 156 151 l28
57 5 715 5 715 31 85 c55 156 144 259 279 325 80 39 195 65 289 65 97 0 163
28 225 96 114 125 103 300 -25 413 -77 68 -182 86 -320 56z"/>
<path d="M32173 7629 c-64 -25 -137 -93 -166 -157 -22 -47 -22 -51 -25 -792
-4 -953 2 -1020 112 -1245 87 -177 187 -282 345 -364 148 -76 301 -114 526
-133 289 -24 608 24 800 120 239 119 388 336 452 657 16 82 18 162 18 900 0
808 0 810 -21 856 -26 57 -88 120 -146 151 -62 33 -204 33 -266 0 -63 -33
-118 -87 -144 -140 l-23 -47 -6 -775 c-6 -837 -4 -816 -60 -935 -70 -149 -236
-234 -454 -235 -230 0 -374 69 -453 218 -66 124 -65 107 -71 957 l-6 770 -23
47 c-32 65 -111 134 -175 153 -69 20 -151 18 -214 -6z"/>
</g>
</svg>
